HIERARCHY
ROOT Hips
{
	OFFSET -3.958830 18.904000 13.208200
	CHANNELS 6 Xposition Yposition Zposition Zrotation Yrotation Xrotation 
	JOINT LHipJoint
	{
		OFFSET 0.000000 0.000000 0.000000
		CHANNELS 3 Zrotation Yrotation Xrotation
		JOINT LeftUpLeg
		{
			OFFSET 1.800000 -1.400000 0.085000
			CHANNELS 3 Zrotation Yrotation Xrotation
			JOINT LeftLeg
			{
				OFFSET 2.215000 -6.000000 0.000000
				CHANNELS 3 Zrotation Yrotation Xrotation
				JOINT LeftFoot
				{
					OFFSET 2.500000 -6.900000 0.000000
					CHANNELS 3 Zrotation Yrotation Xrotation
					JOINT LeftToeBase
					{
						OFFSET 0.200000 -0.500000 1.950000
						CHANNELS 3 Zrotation Yrotation Xrotation
						End Site
						{
							OFFSET 0.000000 0.000000 0.000000
						}
					}
				}
			}
		}
	}
	JOINT RHipJoint
	{
		OFFSET 0.000000 0.000000 0.000000
		CHANNELS 3 Zrotation Yrotation Xrotation
		JOINT RightUpLeg
		{
			OFFSET -1.800000 -1.400000 0.085000
			CHANNELS 3 Zrotation Yrotation Xrotation
			JOINT RightLeg
			{
				OFFSET -2.215000 -6.000000 0.000000
				CHANNELS 3 Zrotation Yrotation Xrotation
				JOINT RightFoot
				{
					OFFSET -2.500000 -6.900000 0.000000
					CHANNELS 3 Zrotation Yrotation Xrotation
					JOINT RightToeBase
					{
						OFFSET -0.200000 -0.500000 1.950000
						CHANNELS 3 Zrotation Yrotation Xrotation
						End Site
						{
							OFFSET 0.000000 0.000000 0.000000
						}
					}
				}
			}
		}
	}
	JOINT LowerBack
	{
		OFFSET 0.000000 0.000000 0.000000
		CHANNELS 3 Zrotation Yrotation Xrotation
		JOINT Spine
		{
			OFFSET -0.087000 1.940000 -0.288900
			CHANNELS 3 Zrotation Yrotation Xrotation
			JOINT Spine1
			{
				OFFSET 0.000000 1.950000 0.060000
				CHANNELS 3 Zrotation Yrotation Xrotation
				JOINT Neck
				{
					OFFSET 0.000000 0.000000 0.000000
					CHANNELS 3 Zrotation Yrotation Xrotation
					JOINT Neck1
					{
						OFFSET 0.000000 1.600000 0.340000
						CHANNELS 3 Zrotation Yrotation Xrotation
						JOINT Head
						{
							OFFSET 0.000000 1.667000 -0.240000
							CHANNELS 3 Zrotation Yrotation Xrotation
							End Site
							{
								OFFSET 0.000000 0.000000 0.000000
							}
						}
					}
				}
				JOINT LeftShoulder
				{
					OFFSET 0.000000 0.000000 0.000000
					CHANNELS 3 Zrotation Yrotation Xrotation
					JOINT LeftArm
					{
						OFFSET 2.700000 1.550000 -0.730000
						CHANNELS 3 Zrotation Yrotation Xrotation
						JOINT LeftForeArm
						{
							OFFSET 5.450000 0.000000 0.000000
							CHANNELS 3 Zrotation Yrotation Xrotation
							JOINT LeftHand
							{
								OFFSET 3.450000 0.000000 0.000000
								CHANNELS 3 Zrotation Yrotation Xrotation
								JOINT LeftHandIndex1
								{
									OFFSET 0.750000 0.000000 0.000000
									CHANNELS 3 Zrotation Yrotation Xrotation
									End Site
									{
										OFFSET 0.000000 0.000000 0.000000
									}
								}
							}
						}
					}
				}
				JOINT RightShoulder
				{
					OFFSET 0.000000 0.000000 0.000000
					CHANNELS 3 Zrotation Yrotation Xrotation
					JOINT RightArm
					{
						OFFSET -2.700000 1.550000 -0.730000
						CHANNELS 3 Zrotation Yrotation Xrotation
						JOINT RightForeArm
						{
							OFFSET -5.450000 0.000000 0.000000
							CHANNELS 3 Zrotation Yrotation Xrotation
							JOINT RightHand
							{
								OFFSET -3.450000 0.000000 0.000000
								CHANNELS 3 Zrotation Yrotation Xrotation
								JOINT RightHandIndex1
								{
									OFFSET -0.750000 0.000000 0.000000
									CHANNELS 3 Zrotation Yrotation Xrotation
									End Site
									{
										OFFSET 0.000000 0.000000 0.000000
									}
								}
							}
						}
					}
				}
			}
		}
	}
}
MOTION
Frames: 10
Frame Time: 0.016667
0.472400 15.805370 -1.565900 0.998459 -42.107615 -2.185853 -15.663517 11.951837 5.258207 27.778954 -3.827974 -38.083041 -8.221537 17.924894 50.721267 0.725655 10.864634 0.480545 0.198480 0.160150 0.209820 18.208606 -9.275684 2.305542 -30.327711 -0.307620 -33.496757 -1.810082 -8.255519 40.189888 -0.383570 -5.987912 1.953275 0.145870 -0.050850 0.085030 -3.113600 -3.335227 -8.955834 6.933830 1.201130 37.915680 4.508962 1.707211 11.014255 -3.908387 -5.233445 -8.734323 -17.289542 8.717249 45.367399 -3.710770 6.764520 -5.840780 -1.603548 2.231394 0.394976 8.678025 1.447801 1.753847 -13.161836 -50.391726 6.765504 -3.629580 3.722938 0.258380 -0.004140 0.117490 -0.024660 8.054077 2.919209 5.387260 31.234016 -8.697913 -10.556164 40.502524 44.318007 11.924078 2.193450 -1.737297 -0.076410 0.087780 0.024450 -0.137490 
0.462040 15.723800 -1.600970 0.444172 -42.367628 -2.676066 -15.679687 12.002348 5.191396 28.210703 -3.483159 -37.920226 -6.848149 17.773781 52.096164 0.780173 10.970270 0.464686 0.192900 0.147930 0.203580 18.207527 -9.191335 2.348610 -30.696752 -0.086487 -33.710457 -1.616661 -8.762747 42.480320 -0.446793 -6.359537 1.838764 0.129690 -0.048500 0.078020 -3.096461 -3.485805 -8.969150 7.323509 0.649852 39.538013 4.707712 1.188171 11.519150 -3.747491 -5.826786 -9.166025 -18.895605 9.326864 46.040489 -4.040770 6.472570 -4.804800 -2.062544 1.633292 0.909350 8.371656 3.764375 1.766896 -13.751673 -46.262264 6.405514 -3.583942 3.727582 0.250870 -0.010450 0.115130 -0.013450 8.248970 3.964027 5.582709 28.703428 -8.306731 -10.079192 41.242340 45.465774 12.778482 2.206379 -1.759764 -0.070080 0.088430 0.016590 -0.127200 
0.451430 15.613100 -1.643770 -0.033598 -43.245297 -4.009468 -15.694867 12.024956 5.030940 28.784741 -2.916649 -36.930288 -5.392723 17.965962 54.341657 0.867834 11.245412 0.392926 0.206020 0.158800 0.217850 18.218509 -9.026018 2.523328 -31.703001 0.367374 -34.599773 -0.833777 -9.800171 46.075714 -0.568756 -6.990720 1.634690 0.131700 -0.068100 0.060850 -3.127809 -3.582226 -9.005266 8.066113 -0.030071 42.625475 4.351890 0.694191 12.028314 -3.406895 -6.792000 -9.424574 -21.068096 9.676116 45.854054 -4.954260 5.673750 -4.958660 -3.754048 0.708158 1.168002 8.876719 6.720050 1.705828 -13.686254 -40.327651 5.524326 -3.518828 3.698083 0.255430 -0.033100 0.124160 -0.007400 9.267375 5.664993 5.773374 25.056608 -7.395401 -9.419081 39.844369 46.185687 12.830349 2.220800 -1.755152 -0.065840 0.101220 0.001510 -0.124330 
0.427480 15.535420 -1.682890 -0.272298 -43.704800 -4.784344 -15.752434 12.058386 4.981357 29.258839 -2.547320 -36.909891 -4.081590 18.127458 56.456609 0.983985 11.503787 0.335259 0.196650 0.146060 0.194490 18.195541 -8.803208 2.634320 -32.093152 0.875065 -35.476575 -0.600907 -10.512198 49.341218 -0.665625 -7.531838 1.472320 0.113980 -0.062630 0.054270 -2.999567 -3.887000 -9.074905 7.724605 -0.108594 44.608762 5.187651 0.454024 12.402106 -3.291695 -7.384609 -9.816645 -22.915368 9.951310 46.736360 -4.957940 4.561690 -3.248000 -5.665820 -0.717574 1.696727 8.422437 8.635072 1.448557 -13.484920 -34.915416 4.744291 -3.465217 3.682018 0.228480 -0.037120 0.110630 0.005580 11.051376 7.787017 6.120376 21.858850 -6.630954 -8.931041 35.198724 45.387133 11.210458 2.239049 -1.746215 -0.049250 0.087690 -0.006030 -0.101770 
0.427230 15.479820 -1.713560 -0.637252 -43.943444 -5.441323 -15.781549 12.140616 4.971443 29.405299 -2.487243 -37.167161 -2.590537 17.930391 58.528772 1.057124 11.707261 0.296438 0.178550 0.118510 0.152770 18.175805 -8.711826 2.628577 -31.465154 1.419898 -35.713975 -1.159866 -10.551578 51.728328 -0.724501 -7.829638 1.395444 0.100980 -0.030870 0.032940 -2.883430 -4.145252 -9.086724 7.485735 -0.244644 46.081846 6.146596 0.301032 12.627186 -3.325377 -7.999210 -10.534102 -24.703621 10.750042 47.260449 -3.322510 3.405940 -1.992010 -6.870614 -2.315580 2.715402 6.355962 10.145937 0.944024 -12.256702 -32.551784 4.050081 -3.430591 3.614280 0.228400 -0.047260 0.086910 0.022200 12.528435 10.022313 6.530992 19.343999 -5.508782 -8.468817 29.419368 42.607183 8.774388 2.246947 -1.683127 -0.063150 0.105950 0.004190 -0.082440 
0.441930 15.472140 -1.729980 -0.426002 -43.988231 -5.908823 -15.758081 12.245070 4.909276 28.435195 -2.860576 -37.481524 -1.076034 17.026905 59.423884 1.075557 11.624909 0.338839 0.157790 0.092800 0.121240 18.175960 -8.785245 2.619050 -30.498708 1.638069 -36.342423 -3.268925 -9.452738 52.617035 -0.715843 -7.790863 1.422565 0.083270 -0.005530 0.027080 -2.861495 -4.188124 -9.042393 7.674486 -0.368444 46.637774 6.501588 0.279083 12.626043 -3.299363 -7.968292 -10.882006 -25.183192 11.217374 48.956413 -2.445970 2.915750 -0.039440 -8.074802 -3.414545 3.189450 4.503634 9.870086 0.360835 -11.560852 -34.075715 4.018426 -3.446701 3.572175 0.206960 -0.038920 0.064830 0.032410 13.831726 11.173147 6.675000 18.958482 -4.132897 -8.137238 23.468208 39.353648 6.427994 2.267400 -1.618873 -0.062340 0.099570 0.009190 -0.065430 
0.458950 15.492470 -1.717990 -0.005774 -43.541943 -5.528463 -15.710674 12.231338 4.914094 27.481123 -3.416042 -37.853803 -1.113033 16.526336 58.798612 1.056162 11.437452 0.408896 0.149320 0.092950 0.087650 18.195221 -8.918316 2.613675 -30.001726 1.427593 -36.580072 -4.259674 -8.756763 51.596896 -0.663910 -7.564134 1.507427 0.080970 0.021710 0.018180 -2.962528 -4.000732 -9.002489 8.751661 -0.594055 45.692110 6.442921 0.602258 12.065231 -3.433581 -7.780838 -10.919091 -25.315055 11.129405 50.345365 -1.254350 2.144030 1.284190 -8.889757 -3.829648 3.032612 2.339785 7.246675 -0.400679 -11.784331 -38.363300 4.564098 -3.477338 3.534630 0.185270 -0.030700 0.047700 0.050740 14.994489 11.341138 6.859261 20.610483 -4.020459 -8.145000 18.017392 36.074469 4.372102 2.283051 -1.554617 -0.059780 0.104000 0.007730 -0.043410 
0.474230 15.547890 -1.702850 0.889143 -42.795502 -4.782016 -15.646950 12.207928 4.926306 25.875706 -4.252829 -38.455898 -1.348478 15.782157 57.484700 1.000797 11.109566 0.528757 0.149220 0.107150 0.050320 18.220251 -9.110595 2.592346 -29.435773 1.035152 -36.715749 -5.401090 -7.829135 49.427148 -0.575496 -7.161165 1.651052 0.093010 0.062950 0.007490 -3.091673 -3.741345 -8.937933 9.360918 -0.619137 43.704830 6.326846 0.999819 10.980235 -3.906392 -7.771053 -10.546601 -25.734782 10.771305 50.910954 0.129970 0.980600 2.171320 -9.283978 -3.402286 2.470831 -0.318534 3.580713 -1.116745 -13.603197 -45.016041 5.958115 -3.517776 3.530681 0.153530 -0.016450 0.023030 0.078700 16.345274 10.812649 6.698667 22.484995 -3.441813 -7.872154 14.021116 32.219499 2.819292 2.313849 -1.495909 -0.059550 0.120800 0.002920 -0.013700 
0.508810 15.644000 -1.658990 1.607412 -42.090541 -3.457865 -15.578827 12.222635 4.931713 24.201576 -5.025310 -38.741210 -2.118107 14.976123 54.907820 0.902065 10.611327 0.701548 0.116970 0.074220 0.004130 18.238903 -9.327169 2.553623 -28.726144 0.577859 -36.705595 -6.659408 -6.744230 46.039519 -0.440160 -6.577143 1.858447 0.081250 0.110800 -0.005710 -3.202093 -3.503004 -8.857588 10.016815 -0.592366 40.741360 6.389143 1.391478 9.974327 -4.221841 -7.774920 -10.385863 -26.380502 10.227855 52.018866 0.717660 -0.250140 4.061420 -9.517597 -3.090369 2.093541 -4.194840 -0.157001 -1.711868 -16.989365 -52.289212 8.375183 -3.562041 3.528253 0.117390 0.008760 -0.018510 0.091830 17.293658 10.440966 6.672520 24.217345 -2.805294 -7.281113 10.833973 27.638709 1.625393 2.368205 -1.421529 -0.071350 0.130470 0.015400 0.008020 
0.524500 15.763690 -1.592750 2.305269 -42.282160 -2.324668 -15.514067 12.352467 4.912536 23.056710 -5.320801 -37.903079 -4.008138 14.669853 51.223123 0.782649 10.082220 0.872110 0.087480 0.048130 -0.048290 18.232876 -9.578898 2.432711 -27.664024 0.302016 -35.654700 -7.229545 -5.706002 41.174258 -0.282572 -5.760109 2.149186 0.075310 0.162000 -0.022720 -3.230742 -3.376139 -8.722597 9.944229 -0.212037 37.371445 6.800418 1.844803 9.420598 -4.578156 -7.851674 -10.581368 -27.472126 10.669865 53.198132 2.185750 -1.086950 5.315380 -9.317016 -3.096007 2.190839 -9.311691 -3.474312 -1.929522 -22.637005 -57.565243 11.985586 -3.583716 3.523041 0.105000 0.022590 -0.049660 0.104870 17.903843 10.462592 6.728984 26.082631 -2.178883 -6.870325 8.437066 23.902623 0.855338 2.414529 -1.340967 -0.091730 0.158160 0.038160 0.027970 
